# xmcd
#
# Track frame offsets: 
#        150
#        16432
#        31402
#        50494
#        57494
#        89436
#        111960
#        132020
#        145827
#
# Disc length: 2393 seconds
#
# Revision: 4
# Processed by: cddbd v1.5.2PL0 Copyright (c) Steve Scherf et al.
# Submitted via: ExactAudioCopy v0.99pb5
#
DISCID=7b095709
DTITLE=Munetaka Higuchi - Destruction
DYEAR=1986
DGENRE=Heavy Metal
TTITLE0=Law Breaker [M]
TTITLE1=Jet Fighter
TTITLE2=Tiger
TTITLE3=Prayer
TTITLE4=Runaway From Yesterday
TTITLE5=In The Dark
TTITLE6=Death
TTITLE7=Growing Power
TTITLE8=Destruction
EXTD=YEAR: 1986
EXTT0=
EXTT1=
EXTT2=
EXTT3=
EXTT4=
EXTT5=
EXTT6=
EXTT7=
EXTT8=
PLAYORDER=
